<svg aria-roledescription="er" viewBox="0 0 850.8314208984375 386" style="max-width: 850.831px; background-color: white;" xmlns:xlink="http://www.w3.org/1999/xlink" xmlns="http://www.w3.org/2000/svg" width="100%" id="mermaid-0"><style>#mermaid-0{font-family:"trebuchet ms",verdana,arial,sans-serif;font-size:16px;fill:#000000;}#mermaid-0 .error-icon{fill:#552222;}#mermaid-0 .error-text{fill:#552222;stroke:#552222;}#mermaid-0 .edge-thickness-normal{stroke-width:2px;}#mermaid-0 .edge-thickness-thick{stroke-width:3.5px;}#mermaid-0 .edge-pattern-solid{stroke-dasharray:0;}#mermaid-0 .edge-pattern-dashed{stroke-dasharray:3;}#mermaid-0 .edge-pattern-dotted{stroke-dasharray:2;}#mermaid-0 .marker{fill:#000000;stroke:#000000;}#mermaid-0 .marker.cross{stroke:#000000;}#mermaid-0 svg{font-family:"trebuchet ms",verdana,arial,sans-serif;font-size:16px;}#mermaid-0 .entityBox{fill:#cde498;stroke:#13540c;}#mermaid-0 .attributeBoxOdd{fill:#ffffff;stroke:#13540c;}#mermaid-0 .attributeBoxEven{fill:#f2f2f2;stroke:#13540c;}#mermaid-0 .relationshipLabelBox{fill:hsl(78.1578947368, 58.4615384615%, 84.5098039216%);opacity:0.7;background-color:hsl(78.1578947368, 58.4615384615%, 84.5098039216%);}#mermaid-0 .relationshipLabelBox rect{opacity:0.5;}#mermaid-0 .relationshipLine{stroke:#000000;}#mermaid-0 .entityTitleText{text-anchor:middle;font-size:18px;fill:#000000;}#mermaid-0 :root{--mermaid-font-family:"trebuchet ms",verdana,arial,sans-serif;}</style><g/><defs><marker orient="auto" markerHeight="18" markerWidth="18" refY="9" refX="0" id="ONLY_ONE_START"><path d="M9,0 L9,18 M15,0 L15,18" fill="none" stroke="gray"/></marker></defs><defs><marker orient="auto" markerHeight="18" markerWidth="18" refY="9" refX="18" id="ONLY_ONE_END"><path d="M3,0 L3,18 M9,0 L9,18" fill="none" stroke="gray"/></marker></defs><defs><marker orient="auto" markerHeight="18" markerWidth="30" refY="9" refX="0" id="ZERO_OR_ONE_START"><circle r="6" cy="9" cx="21" fill="white" stroke="gray"/><path d="M9,0 L9,18" fill="none" stroke="gray"/></marker></defs><defs><marker orient="auto" markerHeight="18" markerWidth="30" refY="9" refX="30" id="ZERO_OR_ONE_END"><circle r="6" cy="9" cx="9" fill="white" stroke="gray"/><path d="M21,0 L21,18" fill="none" stroke="gray"/></marker></defs><defs><marker orient="auto" markerHeight="36" markerWidth="45" refY="18" refX="18" id="ONE_OR_MORE_START"><path d="M0,18 Q 18,0 36,18 Q 18,36 0,18 M42,9 L42,27" fill="none" stroke="gray"/></marker></defs><defs><marker orient="auto" markerHeight="36" markerWidth="45" refY="18" refX="27" id="ONE_OR_MORE_END"><path d="M3,9 L3,27 M9,18 Q27,0 45,18 Q27,36 9,18" fill="none" stroke="gray"/></marker></defs><defs><marker orient="auto" markerHeight="36" markerWidth="57" refY="18" refX="18" id="ZERO_OR_MORE_START"><circle r="6" cy="18" cx="48" fill="white" stroke="gray"/><path d="M0,18 Q18,0 36,18 Q18,36 0,18" fill="none" stroke="gray"/></marker></defs><defs><marker orient="auto" markerHeight="36" markerWidth="57" refY="18" refX="39" id="ZERO_OR_MORE_END"><circle r="6" cy="18" cx="9" fill="white" stroke="gray"/><path d="M21,18 Q39,0 57,18 Q39,36 21,18" fill="none" stroke="gray"/></marker></defs><path style="stroke: gray; fill: none;" marker-start="url(#ZERO_OR_MORE_START)" marker-end="url(#ONLY_ONE_END)" d="M81.146484375,99L81.146484375,109.16666666666667C81.146484375,119.33333333333333,81.146484375,139.66666666666666,90.521484375,161.83333333333334C99.896484375,184,118.646484375,208,128.021484375,220L137.396484375,232" class="er relationshipLine"/><path style="stroke: gray; fill: none;" marker-start="url(#ZERO_OR_MORE_START)" marker-end="url(#ONLY_ONE_END)" d="M428.76575469970703,104.13059000775417L445.4324213663737,113.44215833979513C462.09908803304035,122.7537266718361,495.4324213663737,141.37686333591805,512.0990880330404,166.3550983346257C528.765754699707,191.33333333333334,528.765754699707,222.66666666666666,528.765754699707,238.33333333333334L528.765754699707,254" class="er relationshipLine"/><path style="stroke: gray; fill: none;" marker-start="url(#ZERO_OR_MORE_START)" marker-end="url(#ONLY_ONE_END)" d="M305.67991999575963,110L295.85650300143055,118.33333333333333C286.0330860071015,126.66666666666667,266.3862520184433,143.33333333333334,250.4134974939781,163.66666666666666C234.44074296951294,184,222.14206790924072,208,215.99273037910461,220L209.8433928489685,232" class="er relationshipLine"/><path style="stroke: gray; fill: none;" marker-start="url(#ZERO_OR_MORE_START)" marker-end="url(#ZERO_OR_ONE_END)" d="M528.765754699707,101.55372898510706L510.10126241048175,111.29477415425588C491.43677012125653,121.03581932340471,454.10778554280597,140.51790966170236,407.8444709777832,165.25116516275804C361.58115641276044,189.98442066381372,306.38351186116535,219.96884132762747,278.78468958536786,234.96105165953432L251.1858673095703,249.95326199144117" class="er relationshipLine"/><path style="stroke: gray; fill: none;" marker-start="url(#ZERO_OR_MORE_START)" marker-end="url(#ZERO_OR_ONE_END)" d="M668.8445205688477,106.0757855824292L684.1691157023112,115.06315465202435C699.4937108357748,124.05052372161947,730.1429011027018,142.02526186080974,745.4674962361654,159.3459642637382C760.7920913696289,176.66666666666666,760.7920913696289,193.33333333333334,760.7920913696289,201.66666666666666L760.7920913696289,210" class="er relationshipLine"/><g transform="translate(111.10710144042969,232 )" id="entity-habits-485f9e78-3a34-459f-956a-2a297e650bb3"><rect height="112" width="140.07876586914062" y="0" x="0" class="er entityBox"/><text style="dominant-baseline: middle; text-anchor: middle; font-size: 12px;" transform="translate(70.03938293457031,12)" y="0" x="0" id="text-entity-habits-485f9e78-3a34-459f-956a-2a297e650bb3" class="er entityLabel">habits</text><rect height="22" width="54.095550537109375" y="24" x="0" class="er attributeBoxOdd"/><text style="dominant-baseline: middle; font-size: 10.2px;" transform="translate(5,35)" y="0" x="0" id="text-entity-habits-485f9e78-3a34-459f-956a-2a297e650bb3-attr-1-type" class="er entityLabel">String</text><rect height="22" width="63.2955322265625" y="24" x="54.095550537109375" class="er attributeBoxOdd"/><text style="dominant-baseline: middle; font-size: 10.2px;" transform="translate(59.095550537109375,35)" y="0" x="0" id="text-entity-habits-485f9e78-3a34-459f-956a-2a297e650bb3-attr-1-name" class="er entityLabel">id</text><rect height="22" width="22.68768310546875" y="24" x="117.39108276367188" class="er attributeBoxOdd"/><text style="dominant-baseline: middle; font-size: 10.2px;" transform="translate(122.39108276367188,35)" y="0" x="0" id="text-entity-habits-485f9e78-3a34-459f-956a-2a297e650bb3-attr-1-key" class="er entityLabel">PK</text><rect height="22" width="54.095550537109375" y="46" x="0" class="er attributeBoxEven"/><text style="dominant-baseline: middle; font-size: 10.2px;" transform="translate(5,57)" y="0" x="0" id="text-entity-habits-485f9e78-3a34-459f-956a-2a297e650bb3-attr-2-type" class="er entityLabel">String</text><rect height="22" width="63.2955322265625" y="46" x="54.095550537109375" class="er attributeBoxEven"/><text style="dominant-baseline: middle; font-size: 10.2px;" transform="translate(59.095550537109375,57)" y="0" x="0" id="text-entity-habits-485f9e78-3a34-459f-956a-2a297e650bb3-attr-2-name" class="er entityLabel">title</text><rect height="22" width="22.68768310546875" y="46" x="117.39108276367188" class="er attributeBoxEven"/><text style="dominant-baseline: middle; font-size: 10.2px;" transform="translate(122.39108276367188,57)" y="0" x="0" id="text-entity-habits-485f9e78-3a34-459f-956a-2a297e650bb3-attr-2-key" class="er entityLabel"/><rect height="22" width="54.095550537109375" y="68" x="0" class="er attributeBoxOdd"/><text style="dominant-baseline: middle; font-size: 10.2px;" transform="translate(5,79)" y="0" x="0" id="text-entity-habits-485f9e78-3a34-459f-956a-2a297e650bb3-attr-3-type" class="er entityLabel">DateTime</text><rect height="22" width="63.2955322265625" y="68" x="54.095550537109375" class="er attributeBoxOdd"/><text style="dominant-baseline: middle; font-size: 10.2px;" transform="translate(59.095550537109375,79)" y="0" x="0" id="text-entity-habits-485f9e78-3a34-459f-956a-2a297e650bb3-attr-3-name" class="er entityLabel">created_at</text><rect height="22" width="22.68768310546875" y="68" x="117.39108276367188" class="er attributeBoxOdd"/><text style="dominant-baseline: middle; font-size: 10.2px;" transform="translate(122.39108276367188,79)" y="0" x="0" id="text-entity-habits-485f9e78-3a34-459f-956a-2a297e650bb3-attr-3-key" class="er entityLabel"/><rect height="22" width="54.095550537109375" y="90" x="0" class="er attributeBoxEven"/><text style="dominant-baseline: middle; font-size: 10.2px;" transform="translate(5,101)" y="0" x="0" id="text-entity-habits-485f9e78-3a34-459f-956a-2a297e650bb3-attr-4-type" class="er entityLabel">DateTime</text><rect height="22" width="63.2955322265625" y="90" x="54.095550537109375" class="er attributeBoxEven"/><text style="dominant-baseline: middle; font-size: 10.2px;" transform="translate(59.095550537109375,101)" y="0" x="0" id="text-entity-habits-485f9e78-3a34-459f-956a-2a297e650bb3-attr-4-name" class="er entityLabel">updated_at</text><rect height="22" width="22.68768310546875" y="90" x="117.39108276367188" class="er attributeBoxEven"/><text style="dominant-baseline: middle; font-size: 10.2px;" transform="translate(122.39108276367188,101)" y="0" x="0" id="text-entity-habits-485f9e78-3a34-459f-956a-2a297e650bb3-attr-4-key" class="er entityLabel"/></g><g transform="translate(20,31 )" id="entity-habitweekdays-88fb10ad-7bf1-4ce5-8f33-ba34b0395534"><rect height="68" width="122.29296875" y="0" x="0" class="er entityBox"/><text style="dominant-baseline: middle; text-anchor: middle; font-size: 12px;" transform="translate(61.146484375,12)" y="0" x="0" id="text-entity-habitweekdays-88fb10ad-7bf1-4ce5-8f33-ba34b0395534" class="er entityLabel">habit_week_days</text><rect height="22" width="39.0484364827474" y="24" x="0" class="er attributeBoxOdd"/><text style="dominant-baseline: middle; font-size: 10.2px;" transform="translate(5,35)" y="0" x="0" id="text-entity-habitweekdays-88fb10ad-7bf1-4ce5-8f33-ba34b0395534-attr-1-type" class="er entityLabel">String</text><rect height="22" width="58.90446980794271" y="24" x="39.0484364827474" class="er attributeBoxOdd"/><text style="dominant-baseline: middle; font-size: 10.2px;" transform="translate(44.0484364827474,35)" y="0" x="0" id="text-entity-habitweekdays-88fb10ad-7bf1-4ce5-8f33-ba34b0395534-attr-1-name" class="er entityLabel">id</text><rect height="22" width="24.340062459309895" y="24" x="97.95290629069011" class="er attributeBoxOdd"/><text style="dominant-baseline: middle; font-size: 10.2px;" transform="translate(102.95290629069011,35)" y="0" x="0" id="text-entity-habitweekdays-88fb10ad-7bf1-4ce5-8f33-ba34b0395534-attr-1-key" class="er entityLabel">PK</text><rect height="22" width="39.0484364827474" y="46" x="0" class="er attributeBoxEven"/><text style="dominant-baseline: middle; font-size: 10.2px;" transform="translate(5,57)" y="0" x="0" id="text-entity-habitweekdays-88fb10ad-7bf1-4ce5-8f33-ba34b0395534-attr-2-type" class="er entityLabel">Int</text><rect height="22" width="58.90446980794271" y="46" x="39.0484364827474" class="er attributeBoxEven"/><text style="dominant-baseline: middle; font-size: 10.2px;" transform="translate(44.0484364827474,57)" y="0" x="0" id="text-entity-habitweekdays-88fb10ad-7bf1-4ce5-8f33-ba34b0395534-attr-2-name" class="er entityLabel">week_day</text><rect height="22" width="24.340062459309895" y="46" x="97.95290629069011" class="er attributeBoxEven"/><text style="dominant-baseline: middle; font-size: 10.2px;" transform="translate(102.95290629069011,57)" y="0" x="0" id="text-entity-habitweekdays-88fb10ad-7bf1-4ce5-8f33-ba34b0395534-attr-2-key" class="er entityLabel"/></g><g transform="translate(474.8312301635742,254 )" id="entity-days-5e6873f2-2104-4108-8262-5c378b14d7b5"><rect height="68" width="107.86904907226562" y="0" x="0" class="er entityBox"/><text style="dominant-baseline: middle; text-anchor: middle; font-size: 12px;" transform="translate(53.93452453613281,12)" y="0" x="0" id="text-entity-days-5e6873f2-2104-4108-8262-5c378b14d7b5" class="er entityLabel">days</text><rect height="22" width="54.095550537109375" y="24" x="0" class="er attributeBoxOdd"/><text style="dominant-baseline: middle; font-size: 10.2px;" transform="translate(5,35)" y="0" x="0" id="text-entity-days-5e6873f2-2104-4108-8262-5c378b14d7b5-attr-1-type" class="er entityLabel">String</text><rect height="22" width="31.0858154296875" y="24" x="54.095550537109375" class="er attributeBoxOdd"/><text style="dominant-baseline: middle; font-size: 10.2px;" transform="translate(59.095550537109375,35)" y="0" x="0" id="text-entity-days-5e6873f2-2104-4108-8262-5c378b14d7b5-attr-1-name" class="er entityLabel">id</text><rect height="22" width="22.68768310546875" y="24" x="85.18136596679688" class="er attributeBoxOdd"/><text style="dominant-baseline: middle; font-size: 10.2px;" transform="translate(90.18136596679688,35)" y="0" x="0" id="text-entity-days-5e6873f2-2104-4108-8262-5c378b14d7b5-attr-1-key" class="er entityLabel">PK</text><rect height="22" width="54.095550537109375" y="46" x="0" class="er attributeBoxEven"/><text style="dominant-baseline: middle; font-size: 10.2px;" transform="translate(5,57)" y="0" x="0" id="text-entity-days-5e6873f2-2104-4108-8262-5c378b14d7b5-attr-2-type" class="er entityLabel">DateTime</text><rect height="22" width="31.0858154296875" y="46" x="54.095550537109375" class="er attributeBoxEven"/><text style="dominant-baseline: middle; font-size: 10.2px;" transform="translate(59.095550537109375,57)" y="0" x="0" id="text-entity-days-5e6873f2-2104-4108-8262-5c378b14d7b5-attr-2-name" class="er entityLabel">date</text><rect height="22" width="22.68768310546875" y="46" x="85.18136596679688" class="er attributeBoxEven"/><text style="dominant-baseline: middle; font-size: 10.2px;" transform="translate(90.18136596679688,57)" y="0" x="0" id="text-entity-days-5e6873f2-2104-4108-8262-5c378b14d7b5-attr-2-key" class="er entityLabel"/></g><g transform="translate(288.6869888305664,20 )" id="entity-habitdays-a6e14320-87b2-484c-992f-1c48a7879c6d"><rect height="90" width="140.07876586914062" y="0" x="0" class="er entityBox"/><text style="dominant-baseline: middle; text-anchor: middle; font-size: 12px;" transform="translate(70.03938293457031,12)" y="0" x="0" id="text-entity-habitdays-a6e14320-87b2-484c-992f-1c48a7879c6d" class="er entityLabel">habit_days</text><rect height="22" width="54.095550537109375" y="24" x="0" class="er attributeBoxOdd"/><text style="dominant-baseline: middle; font-size: 10.2px;" transform="translate(5,35)" y="0" x="0" id="text-entity-habitdays-a6e14320-87b2-484c-992f-1c48a7879c6d-attr-1-type" class="er entityLabel">String</text><rect height="22" width="63.2955322265625" y="24" x="54.095550537109375" class="er attributeBoxOdd"/><text style="dominant-baseline: middle; font-size: 10.2px;" transform="translate(59.095550537109375,35)" y="0" x="0" id="text-entity-habitdays-a6e14320-87b2-484c-992f-1c48a7879c6d-attr-1-name" class="er entityLabel">id</text><rect height="22" width="22.68768310546875" y="24" x="117.39108276367188" class="er attributeBoxOdd"/><text style="dominant-baseline: middle; font-size: 10.2px;" transform="translate(122.39108276367188,35)" y="0" x="0" id="text-entity-habitdays-a6e14320-87b2-484c-992f-1c48a7879c6d-attr-1-key" class="er entityLabel">PK</text><rect height="22" width="54.095550537109375" y="46" x="0" class="er attributeBoxEven"/><text style="dominant-baseline: middle; font-size: 10.2px;" transform="translate(5,57)" y="0" x="0" id="text-entity-habitdays-a6e14320-87b2-484c-992f-1c48a7879c6d-attr-2-type" class="er entityLabel">DateTime</text><rect height="22" width="63.2955322265625" y="46" x="54.095550537109375" class="er attributeBoxEven"/><text style="dominant-baseline: middle; font-size: 10.2px;" transform="translate(59.095550537109375,57)" y="0" x="0" id="text-entity-habitdays-a6e14320-87b2-484c-992f-1c48a7879c6d-attr-2-name" class="er entityLabel">created_at</text><rect height="22" width="22.68768310546875" y="46" x="117.39108276367188" class="er attributeBoxEven"/><text style="dominant-baseline: middle; font-size: 10.2px;" transform="translate(122.39108276367188,57)" y="0" x="0" id="text-entity-habitdays-a6e14320-87b2-484c-992f-1c48a7879c6d-attr-2-key" class="er entityLabel"/><rect height="22" width="54.095550537109375" y="68" x="0" class="er attributeBoxOdd"/><text style="dominant-baseline: middle; font-size: 10.2px;" transform="translate(5,79)" y="0" x="0" id="text-entity-habitdays-a6e14320-87b2-484c-992f-1c48a7879c6d-attr-3-type" class="er entityLabel">DateTime</text><rect height="22" width="63.2955322265625" y="68" x="54.095550537109375" class="er attributeBoxOdd"/><text style="dominant-baseline: middle; font-size: 10.2px;" transform="translate(59.095550537109375,79)" y="0" x="0" id="text-entity-habitdays-a6e14320-87b2-484c-992f-1c48a7879c6d-attr-3-name" class="er entityLabel">updated_at</text><rect height="22" width="22.68768310546875" y="68" x="117.39108276367188" class="er attributeBoxOdd"/><text style="dominant-baseline: middle; font-size: 10.2px;" transform="translate(122.39108276367188,79)" y="0" x="0" id="text-entity-habitdays-a6e14320-87b2-484c-992f-1c48a7879c6d-attr-3-key" class="er entityLabel"/></g><g transform="translate(690.7527084350586,210 )" id="entity-users-27822e09-9016-4541-86a1-0c74fe89016d"><rect height="156" width="140.07876586914062" y="0" x="0" class="er entityBox"/><text style="dominant-baseline: middle; text-anchor: middle; font-size: 12px;" transform="translate(70.03938293457031,12)" y="0" x="0" id="text-entity-users-27822e09-9016-4541-86a1-0c74fe89016d" class="er entityLabel">users</text><rect height="22" width="54.095550537109375" y="24" x="0" class="er attributeBoxOdd"/><text style="dominant-baseline: middle; font-size: 10.2px;" transform="translate(5,35)" y="0" x="0" id="text-entity-users-27822e09-9016-4541-86a1-0c74fe89016d-attr-1-type" class="er entityLabel">String</text><rect height="22" width="63.2955322265625" y="24" x="54.095550537109375" class="er attributeBoxOdd"/><text style="dominant-baseline: middle; font-size: 10.2px;" transform="translate(59.095550537109375,35)" y="0" x="0" id="text-entity-users-27822e09-9016-4541-86a1-0c74fe89016d-attr-1-name" class="er entityLabel">id</text><rect height="22" width="22.68768310546875" y="24" x="117.39108276367188" class="er attributeBoxOdd"/><text style="dominant-baseline: middle; font-size: 10.2px;" transform="translate(122.39108276367188,35)" y="0" x="0" id="text-entity-users-27822e09-9016-4541-86a1-0c74fe89016d-attr-1-key" class="er entityLabel">PK</text><rect height="22" width="54.095550537109375" y="46" x="0" class="er attributeBoxEven"/><text style="dominant-baseline: middle; font-size: 10.2px;" transform="translate(5,57)" y="0" x="0" id="text-entity-users-27822e09-9016-4541-86a1-0c74fe89016d-attr-2-type" class="er entityLabel">String</text><rect height="22" width="63.2955322265625" y="46" x="54.095550537109375" class="er attributeBoxEven"/><text style="dominant-baseline: middle; font-size: 10.2px;" transform="translate(59.095550537109375,57)" y="0" x="0" id="text-entity-users-27822e09-9016-4541-86a1-0c74fe89016d-attr-2-name" class="er entityLabel">name</text><rect height="22" width="22.68768310546875" y="46" x="117.39108276367188" class="er attributeBoxEven"/><text style="dominant-baseline: middle; font-size: 10.2px;" transform="translate(122.39108276367188,57)" y="0" x="0" id="text-entity-users-27822e09-9016-4541-86a1-0c74fe89016d-attr-2-key" class="er entityLabel"/><rect height="22" width="54.095550537109375" y="68" x="0" class="er attributeBoxOdd"/><text style="dominant-baseline: middle; font-size: 10.2px;" transform="translate(5,79)" y="0" x="0" id="text-entity-users-27822e09-9016-4541-86a1-0c74fe89016d-attr-3-type" class="er entityLabel">String</text><rect height="22" width="63.2955322265625" y="68" x="54.095550537109375" class="er attributeBoxOdd"/><text style="dominant-baseline: middle; font-size: 10.2px;" transform="translate(59.095550537109375,79)" y="0" x="0" id="text-entity-users-27822e09-9016-4541-86a1-0c74fe89016d-attr-3-name" class="er entityLabel">email</text><rect height="22" width="22.68768310546875" y="68" x="117.39108276367188" class="er attributeBoxOdd"/><text style="dominant-baseline: middle; font-size: 10.2px;" transform="translate(122.39108276367188,79)" y="0" x="0" id="text-entity-users-27822e09-9016-4541-86a1-0c74fe89016d-attr-3-key" class="er entityLabel"/><rect height="22" width="54.095550537109375" y="90" x="0" class="er attributeBoxEven"/><text style="dominant-baseline: middle; font-size: 10.2px;" transform="translate(5,101)" y="0" x="0" id="text-entity-users-27822e09-9016-4541-86a1-0c74fe89016d-attr-4-type" class="er entityLabel">String</text><rect height="22" width="63.2955322265625" y="90" x="54.095550537109375" class="er attributeBoxEven"/><text style="dominant-baseline: middle; font-size: 10.2px;" transform="translate(59.095550537109375,101)" y="0" x="0" id="text-entity-users-27822e09-9016-4541-86a1-0c74fe89016d-attr-4-name" class="er entityLabel">password</text><rect height="22" width="22.68768310546875" y="90" x="117.39108276367188" class="er attributeBoxEven"/><text style="dominant-baseline: middle; font-size: 10.2px;" transform="translate(122.39108276367188,101)" y="0" x="0" id="text-entity-users-27822e09-9016-4541-86a1-0c74fe89016d-attr-4-key" class="er entityLabel"/><rect height="22" width="54.095550537109375" y="112" x="0" class="er attributeBoxOdd"/><text style="dominant-baseline: middle; font-size: 10.2px;" transform="translate(5,123)" y="0" x="0" id="text-entity-users-27822e09-9016-4541-86a1-0c74fe89016d-attr-5-type" class="er entityLabel">DateTime</text><rect height="22" width="63.2955322265625" y="112" x="54.095550537109375" class="er attributeBoxOdd"/><text style="dominant-baseline: middle; font-size: 10.2px;" transform="translate(59.095550537109375,123)" y="0" x="0" id="text-entity-users-27822e09-9016-4541-86a1-0c74fe89016d-attr-5-name" class="er entityLabel">created_at</text><rect height="22" width="22.68768310546875" y="112" x="117.39108276367188" class="er attributeBoxOdd"/><text style="dominant-baseline: middle; font-size: 10.2px;" transform="translate(122.39108276367188,123)" y="0" x="0" id="text-entity-users-27822e09-9016-4541-86a1-0c74fe89016d-attr-5-key" class="er entityLabel"/><rect height="22" width="54.095550537109375" y="134" x="0" class="er attributeBoxEven"/><text style="dominant-baseline: middle; font-size: 10.2px;" transform="translate(5,145)" y="0" x="0" id="text-entity-users-27822e09-9016-4541-86a1-0c74fe89016d-attr-6-type" class="er entityLabel">DateTime</text><rect height="22" width="63.2955322265625" y="134" x="54.095550537109375" class="er attributeBoxEven"/><text style="dominant-baseline: middle; font-size: 10.2px;" transform="translate(59.095550537109375,145)" y="0" x="0" id="text-entity-users-27822e09-9016-4541-86a1-0c74fe89016d-attr-6-name" class="er entityLabel">updated_at</text><rect height="22" width="22.68768310546875" y="134" x="117.39108276367188" class="er attributeBoxEven"/><text style="dominant-baseline: middle; font-size: 10.2px;" transform="translate(122.39108276367188,145)" y="0" x="0" id="text-entity-users-27822e09-9016-4541-86a1-0c74fe89016d-attr-6-key" class="er entityLabel"/></g><g transform="translate(528.765754699707,20 )" id="entity-habitusers-ebc53565-fd1b-41ad-a140-df9913ccf478"><rect height="90" width="140.07876586914062" y="0" x="0" class="er entityBox"/><text style="dominant-baseline: middle; text-anchor: middle; font-size: 12px;" transform="translate(70.03938293457031,12)" y="0" x="0" id="text-entity-habitusers-ebc53565-fd1b-41ad-a140-df9913ccf478" class="er entityLabel">habit_users</text><rect height="22" width="54.095550537109375" y="24" x="0" class="er attributeBoxOdd"/><text style="dominant-baseline: middle; font-size: 10.2px;" transform="translate(5,35)" y="0" x="0" id="text-entity-habitusers-ebc53565-fd1b-41ad-a140-df9913ccf478-attr-1-type" class="er entityLabel">String</text><rect height="22" width="63.2955322265625" y="24" x="54.095550537109375" class="er attributeBoxOdd"/><text style="dominant-baseline: middle; font-size: 10.2px;" transform="translate(59.095550537109375,35)" y="0" x="0" id="text-entity-habitusers-ebc53565-fd1b-41ad-a140-df9913ccf478-attr-1-name" class="er entityLabel">id</text><rect height="22" width="22.68768310546875" y="24" x="117.39108276367188" class="er attributeBoxOdd"/><text style="dominant-baseline: middle; font-size: 10.2px;" transform="translate(122.39108276367188,35)" y="0" x="0" id="text-entity-habitusers-ebc53565-fd1b-41ad-a140-df9913ccf478-attr-1-key" class="er entityLabel">PK</text><rect height="22" width="54.095550537109375" y="46" x="0" class="er attributeBoxEven"/><text style="dominant-baseline: middle; font-size: 10.2px;" transform="translate(5,57)" y="0" x="0" id="text-entity-habitusers-ebc53565-fd1b-41ad-a140-df9913ccf478-attr-2-type" class="er entityLabel">DateTime</text><rect height="22" width="63.2955322265625" y="46" x="54.095550537109375" class="er attributeBoxEven"/><text style="dominant-baseline: middle; font-size: 10.2px;" transform="translate(59.095550537109375,57)" y="0" x="0" id="text-entity-habitusers-ebc53565-fd1b-41ad-a140-df9913ccf478-attr-2-name" class="er entityLabel">created_at</text><rect height="22" width="22.68768310546875" y="46" x="117.39108276367188" class="er attributeBoxEven"/><text style="dominant-baseline: middle; font-size: 10.2px;" transform="translate(122.39108276367188,57)" y="0" x="0" id="text-entity-habitusers-ebc53565-fd1b-41ad-a140-df9913ccf478-attr-2-key" class="er entityLabel"/><rect height="22" width="54.095550537109375" y="68" x="0" class="er attributeBoxOdd"/><text style="dominant-baseline: middle; font-size: 10.2px;" transform="translate(5,79)" y="0" x="0" id="text-entity-habitusers-ebc53565-fd1b-41ad-a140-df9913ccf478-attr-3-type" class="er entityLabel">DateTime</text><rect height="22" width="63.2955322265625" y="68" x="54.095550537109375" class="er attributeBoxOdd"/><text style="dominant-baseline: middle; font-size: 10.2px;" transform="translate(59.095550537109375,79)" y="0" x="0" id="text-entity-habitusers-ebc53565-fd1b-41ad-a140-df9913ccf478-attr-3-name" class="er entityLabel">updated_at</text><rect height="22" width="22.68768310546875" y="68" x="117.39108276367188" class="er attributeBoxOdd"/><text style="dominant-baseline: middle; font-size: 10.2px;" transform="translate(122.39108276367188,79)" y="0" x="0" id="text-entity-habitusers-ebc53565-fd1b-41ad-a140-df9913ccf478-attr-3-key" class="er entityLabel"/></g><rect height="14" width="27.96875" y="164.1304931640625" x="80.93174743652344" class="er relationshipLabelBox"/><text style="text-anchor: middle; dominant-baseline: middle; font-size: 12px;" y="171.1304931640625" x="94.91612243652344" id="rel1" class="er relationshipLabel">habit</text><rect height="14" width="19.990234375" y="153.59063720703125" x="497.8861083984375" class="er relationshipLabelBox"/><text style="text-anchor: middle; dominant-baseline: middle; font-size: 12px;" y="160.59063720703125" x="507.8812255859375" id="rel2" class="er relationshipLabel">day</text><rect height="14" width="27.96875" y="157.6211395263672" x="235.68409729003906" class="er relationshipLabelBox"/><text style="text-anchor: middle; dominant-baseline: middle; font-size: 12px;" y="164.6211395263672" x="249.66847229003906" id="rel3" class="er relationshipLabel">habit</text><rect height="14" width="27.96875" y="168.0323028564453" x="375.6064453125" class="er relationshipLabelBox"/><text style="text-anchor: middle; dominant-baseline: middle; font-size: 12px;" y="175.0323028564453" x="389.5908203125" id="rel4" class="er relationshipLabel">habit</text><rect height="14" width="23.958984375" y="139.03192138671875" x="719.1639404296875" class="er relationshipLabelBox"/><text style="text-anchor: middle; dominant-baseline: middle; font-size: 12px;" y="146.03192138671875" x="731.1434326171875" id="rel5" class="er relationshipLabel">user</text></svg>